/* XPM */
static char *_6f1f833146540a9cf75d8c624127d92hPpXvRP48l9MWN72[] = {
/* columns rows colors chars-per-pixel */
"16 16 21 1 ",
"  c #352E28",
". c #373029",
"X c #39322B",
"o c #3B332C",
"O c #3E362F",
"+ c #413830",
"@ c #443B32",
"# c #453C33",
"$ c #473E35",
"% c #493F36",
"& c #4A4037",
"* c #4B4138",
"= c #4E433A",
"- c #4E443A",
"; c #50453B",
": c #50463C",
"> c #53483E",
", c #54493F",
"< c #574B40",
"1 c #574C41",
"2 c #594D42",
/* pixels */
"O=,>:>>O-,,>-:::",
":O:<XO.o:>:>::>>",
",:, ,,=+O.X-:>,>",
">:O<<22:O$$X:-::",
">:O,<<<<@#-$ -:,",
">o:22222#:2-XO-:",
"-X:-22+:+:22X:+,",
"X-<-;=,O:,><O:,O",
" :22==>:+<<-:@>X",
"X>:2<-::-O,-:@+o",
"O-:&=1,<;-O$:-$&",
"O--=+>222;:X,:+&",
"=$-$&-;-:*-@o+*=",
":%$+$$:=>:+++O-:",
"-:%%$+@+$$+&-*>:",
":>>=*&=**$===,--"
};
